<svg xmlns="http://www.w3.org/2000/svg" viewBox="0 0 960 640" width="960" height="640">
  <rect width="960" height="640" fill="#f4f1e8"/>
  <text x="32" y="42" font-family="sans-serif" font-size="22" fill="#1a3a5c">Î\: Ï¶üÉÞÃ×‚Áó	</text>
  <text x="32" y="66" font-family="sans-serif" font-size="13" fill="#555">äŒ7t4 2}²roóšnî‰gY</text>
  <path d="M80 120 L300 100 L520 160 L700 120 L880 200 L860 520 L620 560 L340 540 L120 480 Z" fill="#e7efd8" stroke="#6d7a55" stroke-width="2"/>
  <path d="M180 200 L420 170 L560 230 L480 360 L260 340 Z" fill="#f6d98a" opacity="0.85"/>
  <path d="M520 160 L700 120 L760 240 L620 300 L520 250 Z" fill="#e7a2a2" opacity="0.8"/>
  <path d="M300 360 L620 340 L700 460 L360 500 Z" fill="#c9d7ef" opacity="0.75"/>
  <path d="M150 250 C280 230 400 280 520 260 C640 240 760 300 820 340" fill="none" stroke="#3d7ea6" stroke-width="8"/>
  <text x="210" y="230" font-family="sans-serif" font-size="16" fill="#1a3a5c">	å0:</text>
  <text x="560" y="190" font-family="sans-serif" font-size="16" fill="#1a3a5c">I&ö¡</text>
  <text x="430" y="430" font-family="sans-serif" font-size="16" fill="#1a3a5c">Î\0:</text>
  <text x="400" y="300" font-family="sans-serif" font-size="13" fill="#1a5270">\Ý</text>
  <text x="150" y="400" font-family="sans-serif" font-size="13" fill="#6b3a2a">èûçt™:ßËeb	</text>
  <g transform="translate(32 580)">
    <rect width="18" height="12" fill="#f6d98a" stroke="#333"/>
    <text x="24" y="11" font-family="sans-serif" font-size="12" fill="#333">>ëóš</text>
    <rect x="120" width="18" height="12" fill="#e7a2a2" stroke="#333"/>
    <text x="144" y="11" font-family="sans-serif" font-size="12" fill="#333">}³f</text>
    <rect x="270" width="18" height="12" fill="#c9d7ef" stroke="#333"/>
    <text x="294" y="11" font-family="sans-serif" font-size="12" fill="#333">úŒ„YDÄò</text>
    <rect x="430" width="18" height="4" y="4" fill="#3d7ea6"/>
    <text x="454" y="11" font-family="sans-serif" font-size="12" fill="#333">\Ý</text>
  </g>
</svg>
